<?xml version="1.0" encoding="UTF-8"?>
<!DOCTYPE svg PUBLIC "-//W3C//DTD SVG 1.1//EN" "http://www.w3.org/Graphics/SVG/1.1/DTD/svg11.dtd">
<!-- Creator: CorelDRAW X7 -->
<svg xmlns="http://www.w3.org/2000/svg" xml:space="preserve" width="172px" height="69px" version="1.1" style="shape-rendering:geometricPrecision; text-rendering:geometricPrecision; image-rendering:optimizeQuality; fill-rule:evenodd; clip-rule:evenodd"
viewBox="0 0 17200 6852"
 xmlns:xlink="http://www.w3.org/1999/xlink">
 <defs>
  <style type="text/css">
   <![CDATA[
    .fil1 {fill:yellow}
    .fil0 {fill:white}
    .fil2 {fill:white;fill-rule:nonzero}
   ]]>
  </style>
 </defs>
 <g id="Layer_x0020_1">
  <metadata id="CorelCorpID_0Corel-Layer"/>
  <g id="_384015808">
   <g id="_696037408">
    <path class="fil0" d="M7853 3284c-162,-87 -325,-133 -505,-164 -99,-15 -212,-31 -304,-67 -31,-10 -59,-25 -85,-43 -187,-138 -82,-335 116,-374 209,-41 447,64 639,136 0,0 0,0 0,0 0,0 0,0 3,0 8,5 20,8 31,10 15,8 36,10 56,10 115,0 207,-94 207,-210 0,-81 -46,-153 -117,-189 -195,-97 -405,-146 -620,-148 -281,-5 -612,58 -788,299 -141,192 -161,474 -21,671 93,128 238,197 382,235 174,41 345,85 519,126 82,17 187,51 228,133 82,156 -69,281 -207,317 -95,26 -195,21 -289,3 -134,-23 -213,-62 -328,-123 -31,-16 -62,-31 -90,-49 -30,-15 -66,-25 -102,-25 -115,0 -213,97 -213,217 0,74 39,146 105,184 154,90 323,151 500,177 199,31 430,23 624,-36 64,-20 125,-43 184,-69 80,-36 146,-90 197,-156 154,-197 187,-512 39,-719 -41,-59 -100,-108 -161,-146l0 0zm4791 48c0,-619 471,-1131 1070,-1197 46,-3 90,-5 136,-5 194,0 381,46 545,130 36,26 74,46 115,67 66,43 128,94 184,151 -128,158 -199,327 -233,442 -48,-74 -112,-138 -187,-189 -35,-26 -74,-49 -115,-67 -94,-46 -199,-69 -309,-69 -410,0 -738,330 -738,737 0,410 331,740 738,740 409,0 739,-330 737,-740 0,-168 36,-332 100,-478 35,-82 81,-161 133,-233 87,-115 192,-215 312,-294 41,-21 79,-41 115,-67 164,-84 351,-130 545,-130 46,0 90,2 136,5 601,66 1072,578 1072,1197 0,668 -542,1206 -1208,1206 -317,0 -609,-125 -824,-328 59,-87 146,-238 225,-450 131,189 351,312 599,312 410,0 740,-330 740,-740 0,-407 -330,-737 -740,-737 -110,0 -217,23 -310,69 -40,18 -79,41 -117,67 -187,133 -310,351 -310,596 0,3 0,5 0,5 -2,3 -2,6 0,6 0,263 -87,509 -233,709 -220,296 -573,491 -972,491 -666,0 -1206,-538 -1206,-1206zm-292 -514c0,-315 -258,-548 -565,-548 -29,0 -54,0 -82,0 -292,0 -581,0 -873,0 -126,0 -228,103 -228,228 0,550 0,1103 0,1653 0,128 102,228 230,228 297,0 594,0 891,0 33,0 64,0 100,0 328,0 584,-228 584,-560 0,-353 -231,-510 -466,-510 212,-43 409,-163 409,-491zm-466 937c0,156 -110,251 -256,251 -191,0 -381,0 -570,0 0,-169 0,-336 0,-502 186,0 371,0 558,0 151,0 268,77 268,251zm-826 -1109c194,0 389,0 583,0 136,-2 243,108 243,241 0,133 -107,241 -240,241 -197,0 -392,0 -586,0 0,-162 0,-320 0,-482zm-822 -176c0,0 0,-3 0,-8 -2,-123 -105,-220 -225,-220 -126,0 -225,97 -230,220 0,215 0,428 0,640 -305,0 -610,0 -909,0 0,-210 0,-420 0,-632 0,-3 0,-5 0,-8 -5,-123 -105,-220 -228,-220 -123,0 -223,97 -228,220 0,287 0,576 0,863 0,286 0,576 0,862 0,126 103,228 228,228 125,0 228,-102 228,-228 0,-225 0,-453 0,-678 302,0 607,0 911,0 0,225 0,453 0,678 0,126 102,228 228,228 125,0 230,-100 228,-225 0,0 0,-3 0,-3 0,-286 0,-570 -3,-857 0,-287 0,-571 0,-860l0 0zm-4177 0c0,0 0,-3 0,-8 -3,-123 -105,-220 -228,-220 -125,0 -225,97 -230,220 0,348 0,696 0,1045 0,673 -909,673 -909,0 0,-346 0,-692 0,-1037 0,-3 0,-5 0,-8 -5,-123 -105,-220 -228,-220 -122,0 -222,97 -227,220 0,374 0,748 0,1119 0,2 0,2 0,5 0,430 330,788 755,827 99,7 207,7 307,0 430,-36 757,-397 757,-827 0,-3 0,-3 0,-5 3,-369 3,-740 3,-1111l0 0zm-3783 -228c-120,0 -223,97 -225,220 0,287 0,576 0,863 -3,286 -3,576 -3,862 0,128 103,228 228,228 125,0 228,-100 228,-228 0,-225 0,-453 0,-678 302,0 606,0 911,0 0,225 0,453 0,678 0,128 102,228 228,228 125,0 228,-100 228,-228 0,-286 0,-573 0,-857 0,-287 0,-573 0,-860 0,-3 0,-5 0,-8 -3,-123 -103,-220 -228,-220 -123,0 -223,97 -226,220 0,213 0,428 0,640 -304,0 -609,0 -911,0 0,-210 0,-422 0,-632 0,-3 0,-5 0,-8 -5,-123 -105,-220 -230,-220l0 0zm-2278 225c0,290 0,576 0,863 0,287 0,573 0,860 0,125 100,225 225,225 126,0 228,-100 228,-228 0,-128 0,-261 0,-391 3,-5 5,-8 10,-13 8,-8 16,-13 21,-21 61,-71 125,-143 189,-215 236,264 469,530 704,794 0,2 3,5 3,5 84,87 220,95 309,15 87,-79 98,-215 21,-307 -228,-256 -456,-514 -681,-770 200,-225 404,-451 609,-676 0,0 0,-2 3,-5 77,-90 66,-228 -21,-305 -89,-79 -228,-74 -307,11 -289,322 -576,642 -860,959 0,-266 0,-532 0,-798 0,-3 0,-5 0,-8 -5,-123 -105,-220 -228,-220 -123,0 -225,97 -225,220 0,0 0,3 0,5l0 0z"/>
    <path class="fil1" d="M13614 1897c0,-589 425,-1083 985,-1186 80,-225 233,-422 451,-557 138,-85 289,-136 438,-154 25,105 84,338 107,409 -113,6 -223,36 -325,100 -87,54 -159,126 -210,205 550,113 968,599 968,1183 0,23 -3,46 -3,66 -156,-36 -312,-31 -468,0 2,-20 2,-43 2,-66 0,-407 -330,-738 -739,-738 -407,0 -737,328 -737,738 0,23 0,43 2,66 -154,-31 -310,-31 -468,0 0,-23 -3,-43 -3,-66z"/>
    <path class="fil2" d="M3466 5549c0,41 -29,72 -75,72 -38,0 -71,-31 -71,-72 0,-38 33,-74 71,-74 46,0 75,36 75,74zm-70 1287c-43,0 -76,-33 -76,-76 0,-305 0,-612 0,-917 0,-46 33,-79 79,-79 38,0 72,33 72,79 0,305 0,612 0,917 0,43 -34,76 -75,76zm971 16c-302,0 -546,-241 -546,-543 0,-302 244,-545 548,-545 118,0 231,38 328,113 36,25 41,71 15,102 -25,36 -72,38 -105,15 -69,-53 -153,-82 -238,-82 -220,0 -399,177 -399,397 0,218 179,397 397,397 87,0 171,-28 238,-82 35,-26 82,-18 107,13 23,33 15,79 -15,105 -97,74 -210,110 -330,110zm1732 -676c-12,-51 -33,-102 -64,-148 -94,-159 -266,-259 -450,-259 -141,0 -271,54 -371,154 -131,133 -185,330 -141,512 20,97 72,186 143,258 103,102 238,159 382,159 76,0 151,-13 222,-46 64,-29 123,-72 174,-123 29,-31 26,-77 -5,-105 -28,-28 -74,-28 -102,2 -36,39 -79,70 -128,93 -51,20 -105,33 -161,33 -103,0 -203,-41 -277,-115 -64,-64 -102,-144 -112,-231 94,0 189,0 289,0 146,0 294,0 445,0 36,0 80,3 115,-10 36,-13 54,-41 57,-77 0,-33 -11,-69 -16,-97l0 0zm-888 59c10,-62 34,-120 69,-169 69,-97 179,-161 305,-161 123,0 233,64 302,161 36,49 61,105 72,169 -251,0 -500,0 -748,0l0 0zm2360 617c-302,0 -545,-243 -545,-543 0,-302 243,-545 545,-545 123,0 236,36 333,113 33,25 38,71 13,102 -23,33 -69,38 -103,15 -71,-56 -153,-82 -243,-82 -218,0 -397,177 -397,397 0,218 179,397 397,397 87,0 172,-28 241,-82 36,-26 82,-18 105,13 23,33 18,79 -13,105 -97,74 -210,110 -333,110zm1282 -1034c-58,-34 -128,-54 -197,-54 -89,0 -179,33 -240,89 0,-5 0,-7 0,-10 0,-38 -28,-66 -64,-66 -39,0 -67,28 -67,66 0,307 0,612 0,917 0,43 33,76 74,76 39,0 75,-33 75,-76 0,-208 0,-418 0,-625 0,-123 100,-225 222,-225 41,0 82,13 121,33 35,21 82,8 102,-25 21,-31 8,-80 -26,-100l0 0zm1388 358c-13,-51 -36,-102 -64,-151 -95,-156 -267,-258 -453,-258 -139,0 -272,56 -372,156 -130,130 -179,330 -140,512 23,97 74,186 146,258 102,102 238,159 381,159 77,0 154,-13 220,-46 67,-29 126,-72 179,-123 26,-31 23,-77 -5,-105 -31,-28 -77,-28 -105,2 -36,39 -79,70 -130,93 -49,20 -103,33 -159,33 -102,0 -202,-41 -276,-115 -64,-64 -103,-146 -113,-233 95,0 189,0 289,0 149,0 294,0 446,0 38,0 79,2 115,-10 33,-13 53,-39 56,-77 0,-34 -8,-67 -15,-95l0 0zm-889 59c11,-62 34,-120 70,-169 71,-100 181,-164 302,-164 125,0 235,64 304,164 36,49 59,105 69,169 -248,0 -499,0 -745,0l0 0zm2258 -461c-36,0 -67,28 -67,64 0,39 0,80 0,118 -99,-118 -248,-192 -414,-192 -300,0 -545,246 -545,545 0,300 245,543 545,543 166,0 315,-72 414,-190 0,36 0,72 0,108 0,36 31,66 67,66 36,0 64,-30 64,-66 0,-310 0,-620 -3,-932 0,-36 -25,-64 -61,-64l0 0zm-481 932c-218,0 -397,-177 -397,-397 0,-220 179,-394 397,-397 220,0 399,177 399,397 0,220 -179,397 -399,397zm1735 130c41,0 74,-33 74,-74 0,-187 0,-374 0,-560 0,-162 133,-295 297,-295 159,0 292,133 292,295 0,186 0,373 0,560 0,41 36,74 74,74 39,0 75,-33 75,-74 0,-187 0,-374 0,-560 0,-244 -200,-443 -441,-443 -156,0 -292,79 -371,199 -79,-120 -210,-199 -366,-199 -120,0 -230,51 -310,128 0,-16 0,-31 0,-46 0,-36 -30,-67 -66,-67 -36,0 -67,31 -67,67 0,307 0,614 0,921 0,41 36,74 75,74 43,0 74,-33 74,-74 0,-187 0,-374 0,-560 0,-162 130,-295 294,-295 164,0 295,133 295,295 0,186 0,373 0,560 0,41 33,74 71,74l0 0z"/>
    <path class="fil0" d="M16865 1200c184,0 335,172 335,333 0,159 -85,251 -202,302 0,-2 -3,-5 -5,-10 0,0 0,0 0,0 -5,-8 -8,-15 -11,-23 -2,-3 -5,-5 -5,-8 0,0 0,0 0,0 -33,-69 -64,-141 -97,-210 -3,0 -3,0 -8,0 -23,0 -43,0 -66,0 0,57 0,110 0,164 -18,0 -36,0 -57,0 0,-138 0,-276 0,-415 39,0 77,0 116,0 38,0 133,0 133,126 0,56 -23,95 -64,115 28,64 61,128 89,195 77,-52 126,-108 126,-236 0,-130 -126,-286 -284,-286 -159,0 -287,127 -287,286 0,156 197,284 287,284 89,0 38,-2 59,-5 5,13 12,28 20,44 -26,5 26,7 -79,7 -108,0 -336,-148 -336,-330 0,-184 151,-333 336,-333l0 0zm-59 177c20,0 41,0 61,0 51,0 77,31 77,79 0,59 -36,85 -74,85 -21,0 -44,0 -64,0 0,-54 0,-110 0,-164l0 0z"/>
   </g>
  </g>
 </g>
</svg>
